<svg aria-hidden="true" style="position:absolute;width:0;height:0" xmlns="http://www.w3.org/2000/svg" overflow="hidden"><defs><symbol id="icon-cross" viewBox="0 0 32 32"><path d="M29.629 30.222 2.37 1.778m27.259 0L2.37 30.222"/></symbol><symbol id="icon-menu" viewBox="0 0 48 32"><path d="M45.467 13.333H2.534c-1.399 0-2.533.681-2.533 1.52v.16c0 .839 1.134 1.52 2.533 1.52h42.933c1.399 0 2.533-.681 2.533-1.52v-.16c0-.839-1.134-1.52-2.533-1.52zm0 13.334H2.534c-1.399 0-2.533.681-2.533 1.52v.16c0 .839 1.134 1.52 2.533 1.52h42.933c1.399 0 2.533-.681 2.533-1.52v-.16c0-.839-1.134-1.52-2.533-1.52zm0-26.667H2.534C1.135 0 .001.681.001 1.52v.16c0 .839 1.134 1.52 2.533 1.52h42.933C46.866 3.2 48 2.519 48 1.68v-.16C48 .681 46.866 0 45.467 0z"/></symbol><symbol id="icon-cros-modal" viewBox="0 0 32 32"><path d="M28.857 3.143 3.143 28.857m0-25.714 25.714 25.714"/></symbol><symbol id="icon-details-up" viewBox="0 0 45 32"><path d="M24.899 3.126a3.198 3.198 0 0 0-4.993-.007l-.005.006L1.613 26.002a3.2 3.2 0 0 0 2.5 5.197h36.576a3.2 3.2 0 0 0 2.491-5.203l.005.006L24.903 3.125z"/></symbol><symbol id="icon-details-down" viewBox="0 0 45 32"><path d="M24.899 28.874c-.591.735-1.491 1.201-2.499 1.201s-1.908-.466-2.494-1.195l-.005-.006L1.613 5.997A3.2 3.2 0 0 1 4.113.8h36.576a3.2 3.2 0 0 1 2.491 5.203l.005-.006-18.282 22.877z"/></symbol><symbol id="icon-social-facebook" viewBox="0 0 32 32"><path d="M24 10.363h-5.904V7.04c0-1.248.963-1.539 1.643-1.539h4.165V.018l-5.736-.019c-6.371 0-7.821 4.091-7.821 6.707v3.653h-3.68v5.653h3.68v15.987h7.749V16.01h5.227L24 10.362z"/></symbol><symbol id="icon-social-youtube" viewBox="0 0 32 32"><path d="M28.501 5.973c1.379.349 2.461 1.387 2.829 2.701.669 2.384.669 7.36.669 7.36s0 4.973-.667 7.357c-.371 1.315-1.453 2.307-2.832 2.659-2.496.64-12.501.64-12.501.64s-10.005 0-12.501-.64c-1.379-.352-2.461-1.344-2.832-2.659-.667-2.384-.667-7.36-.667-7.36s0-4.973.667-7.357a3.937 3.937 0 0 1 2.808-2.696l.027-.006C5.994 5.332 16 5.332 16 5.332s10.005 0 12.501.64zm-15.773 5.544v9.032l8.363-4.517-8.363-4.512z"/></symbol><symbol id="icon-social-group" viewBox="0 0 32 32"><path d="M32 2a2 2 0 1 1-3.999.001A2 2 0 0 1 32 2zM16 30C8.268 30 2 23.732 2 16S8.268 2 16 2s14 6.268 14 14-6.268 14-14 14zm0-4.667a9.333 9.333 0 1 0 0-18.666 9.333 9.333 0 1 0 0 18.666z"/></symbol></defs></svg>